<?xml version="1.0" encoding="utf-8"?>
<svg width="24px" height="24px" viewBox="0 0 24 24" version="1.1" xmlns:xlink="http://www.w3.org/1999/xlink" xmlns="http://www.w3.org/2000/svg">
  <desc>Created with Lunacy</desc>
  <g id="Close">
    <path d="M7.01041 5.59619L12.3137 0.292893C12.7042 -0.0976311 13.3374 -0.0976311 13.7279 0.292893C14.1184 0.683417 14.1184 1.31658 13.7279 1.70711L8.42462 7.01041L13.7279 12.3137C14.1184 12.7042 14.1184 13.3374 13.7279 13.7279C13.3374 14.1184 12.7042 14.1184 12.3137 13.7279L7.01041 8.42462L1.70711 13.7279C1.31658 14.1184 0.683417 14.1184 0.292893 13.7279C-0.0976311 13.3374 -0.0976311 12.7042 0.292893 12.3137L5.59619 7.01041L0.292893 1.70711C-0.0976311 1.31658 -0.0976311 0.683417 0.292893 0.292893C0.683417 -0.0976311 1.31658 -0.0976311 1.70711 0.292893L7.01041 5.59619Z" transform="translate(5 5)" id="Path" fill="#A7A7B3" stroke="none" />
  </g>
</svg>